HIERARCHY
ROOT Hips
{
	OFFSET 0.00000 0.00000 0.00000
	CHANNELS 6 Xposition Yposition Zposition Zrotation Yrotation Xrotation 
	JOINT LHipJoint
	{
		OFFSET 0 0 0
		CHANNELS 3 Zrotation Yrotation Xrotation
		JOINT LeftUpLeg
		{
			OFFSET 1.65674 -1.80282 0.62477
			CHANNELS 3 Zrotation Yrotation Xrotation
			JOINT LeftLeg
			{
				OFFSET 2.59720 -7.13576 0.00000
				CHANNELS 3 Zrotation Yrotation Xrotation
				JOINT LeftFoot
				{
					OFFSET 2.49236 -6.84770 0.00000
					CHANNELS 3 Zrotation Yrotation Xrotation
					JOINT LeftToeBase
					{
						OFFSET 0.19704 -0.54136 2.14581
						CHANNELS 3 Zrotation Yrotation Xrotation
						End Site
						{
							OFFSET 0.00000 -0.00000 1.11249
						}
					}
				}
			}
		}
	}
	JOINT RHipJoint
	{
		OFFSET 0 0 0
		CHANNELS 3 Zrotation Yrotation Xrotation
		JOINT RightUpLeg
		{
			OFFSET -1.61070 -1.80282 0.62476
			CHANNELS 3 Zrotation Yrotation Xrotation
			JOINT RightLeg
			{
				OFFSET -2.59502 -7.12977 0.00000
				CHANNELS 3 Zrotation Yrotation Xrotation
				JOINT RightFoot
				{
					OFFSET -2.46780 -6.78024 0.00000
					CHANNELS 3 Zrotation Yrotation Xrotation
					JOINT RightToeBase
					{
						OFFSET -0.23024 -0.63258 2.13368
						CHANNELS 3 Zrotation Yrotation Xrotation
						End Site
						{
							OFFSET -0.00000 -0.00000 1.11569
						}
					}
				}
			}
		}
	}
	JOINT LowerBack
	{
		OFFSET 0 0 0
		CHANNELS 3 Zrotation Yrotation Xrotation
		JOINT Spine
		{
			OFFSET 0.01961 2.05450 -0.14112
			CHANNELS 3 Zrotation Yrotation Xrotation
			JOINT Spine1
			{
				OFFSET 0.01021 2.06436 -0.05921
				CHANNELS 3 Zrotation Yrotation Xrotation
				JOINT Neck
				{
					OFFSET 0 0 0
					CHANNELS 3 Zrotation Yrotation Xrotation
					JOINT Neck1
					{
						OFFSET 0.00713 1.56711 0.14968
						CHANNELS 3 Zrotation Yrotation Xrotation
						JOINT Head
						{
							OFFSET 0.03429 1.56041 -0.10006
							CHANNELS 3 Zrotation Yrotation Xrotation
							End Site
							{
								OFFSET 0.01305 1.62560 -0.05265
							}
						}
					}
				}
				JOINT LeftShoulder
				{
					OFFSET 0 0 0
					CHANNELS 3 Zrotation Yrotation Xrotation
					JOINT LeftArm
					{
						OFFSET 3.54205 0.90436 -0.17364
						CHANNELS 3 Zrotation Yrotation Xrotation
						JOINT LeftForeArm
						{
							OFFSET 4.86513 -0.00000 -0.00000
							CHANNELS 3 Zrotation Yrotation Xrotation
							JOINT LeftHand
							{
								OFFSET 3.35554 -0.00000 0.00000
								CHANNELS 3 Zrotation Yrotation Xrotation
								JOINT LeftFingerBase
								{
									OFFSET 0 0 0
									CHANNELS 3 Zrotation Yrotation Xrotation
									JOINT LeftHandIndex1
									{
										OFFSET 0.66117 -0.00000 0.00000
										CHANNELS 3 Zrotation Yrotation Xrotation
										End Site
										{
											OFFSET 0.53306 -0.00000 0.00000
										}
									}
								}
								JOINT LThumb
								{
									OFFSET 0 0 0
									CHANNELS 3 Zrotation Yrotation Xrotation
									End Site
									{
										OFFSET 0.54120 -0.00000 0.54120
									}
								}
							}
						}
					}
				}
				JOINT RightShoulder
				{
					OFFSET 0 0 0
					CHANNELS 3 Zrotation Yrotation Xrotation
					JOINT RightArm
					{
						OFFSET -3.49802 0.75994 -0.32616
						CHANNELS 3 Zrotation Yrotation Xrotation
						JOINT RightForeArm
						{
							OFFSET -5.02649 -0.00000 0.00000
							CHANNELS 3 Zrotation Yrotation Xrotation
							JOINT RightHand
							{
								OFFSET -3.36431 -0.00000 0.00000
								CHANNELS 3 Zrotation Yrotation Xrotation
								JOINT RightFingerBase
								{
									OFFSET 0 0 0
									CHANNELS 3 Zrotation Yrotation Xrotation
									JOINT RightHandIndex1
									{
										OFFSET -0.73041 -0.00000 0.00000
										CHANNELS 3 Zrotation Yrotation Xrotation
										End Site
										{
											OFFSET -0.58887 -0.00000 0.00000
										}
									}
								}
								JOINT RThumb
								{
									OFFSET 0 0 0
									CHANNELS 3 Zrotation Yrotation Xrotation
									End Site
									{
										OFFSET -0.59786 -0.00000 0.59786
									}
								}
							}
						}
					}
				}
			}
		}
	}
}
MOTION
Frames: 12
Frame Time: 0.033333
9.28 17.49 0.54 -7.37 -8.28 2.98 0.00 0.00 0.00 -9.21 -4.88 -23.35 4.40 12.67 38.16 0.63 0.31 -15.12 0.25 -3.23 -8.93 0.00 0.00 0.00 30.63 -19.18 -1.98 -0.77 -5.61 15.65 -0.20 -16.18 -24.74 -0.28 3.39 -9.36 -4.87 5.05 7.94 -8.33 6.18 3.41 -6.50 3.09 -0.46 -9.85 -8.70 -13.26 13.48 -9.87 -10.11 5.21 -4.58 0.34 0.00 0.00 0.00 -86.10 8.65 33.51 131.22 -52.49 -94.79 -0.00 0.00 -20.81 25.37 4.16 1.97 -7.12 0.00 -0.00 -1.05 34.58 0.27 0.00 0.00 0.00 -21.16 60.61 -42.55 -30.22 41.08 -11.56 0.00 -0.00 -11.39 -25.07 17.20 -7.87 7.12 -0.00 -0.00 1.87 -11.12 1.48
9.31 17.53 0.52 -7.07 -9.29 2.45 0.00 0.00 0.00 -9.76 -4.20 -22.56 4.33 12.59 37.84 0.58 1.28 -14.91 0.65 -5.17 -14.38 0.00 0.00 0.00 30.05 -18.31 -1.45 -0.81 -5.76 16.08 -0.29 -16.33 -25.71 -0.22 3.02 -8.32 -4.79 4.94 8.00 -7.91 6.03 3.39 -6.08 3.02 -0.56 -9.46 -8.33 -13.67 12.17 -9.40 -10.22 4.77 -4.36 0.20 -0.00 0.00 0.00 -85.70 8.69 34.97 130.59 -52.76 -94.29 -0.00 0.00 -20.97 25.75 4.02 1.94 -7.12 0.00 -0.00 -0.73 34.44 0.19 -0.00 0.00 0.00 -10.28 60.35 -30.59 -39.81 47.95 -18.30 0.00 -0.00 -13.08 -26.57 17.35 -8.48 7.12 -0.00 -0.00 0.90 -10.72 0.72
9.35 17.53 0.49 -5.77 -10.28 1.69 0.00 0.00 0.00 -11.39 -3.68 -21.59 4.19 12.40 37.18 0.56 1.67 -14.87 0.45 -4.30 -11.92 0.00 0.00 0.00 28.29 -17.84 -1.11 -0.90 -6.04 16.90 -0.32 -16.02 -25.60 -0.14 2.37 -6.54 -5.30 4.71 8.27 -7.81 5.67 3.39 -5.69 2.82 -0.79 -9.00 -8.19 -14.74 11.40 -9.24 -9.77 4.44 -4.26 0.40 -0.00 0.00 0.00 -84.65 8.37 36.65 130.01 -52.99 -93.84 -0.00 0.00 -21.22 26.10 3.72 1.82 -7.12 0.00 -0.00 -0.43 34.12 0.12 -0.00 0.00 0.00 0.55 60.03 -19.82 -51.02 53.40 -26.99 0.00 -0.00 -13.38 -28.08 17.99 -9.36 7.12 -0.00 -0.00 -0.02 -9.77 -0.02
9.39 17.55 0.45 -4.48 -11.70 1.23 0.00 0.00 0.00 -12.93 -3.56 -20.62 3.97 12.13 36.18 0.54 2.87 -15.22 0.39 -3.99 -11.05 0.00 0.00 0.00 26.64 -16.67 -0.62 -0.93 -6.16 17.25 -0.47 -15.46 -26.19 -0.11 2.18 -6.02 -5.78 4.55 7.90 -7.52 5.47 3.46 -5.07 2.71 -0.60 -8.46 -7.67 -14.94 10.29 -8.59 -10.54 4.08 -3.96 0.05 -0.00 0.00 0.00 -83.61 7.59 38.43 129.71 -53.11 -93.59 -0.00 0.00 -21.32 26.47 2.98 1.48 -7.12 0.00 -0.00 -0.11 33.31 0.03 -0.00 0.00 0.00 11.90 58.72 -9.15 -64.88 57.48 -38.43 0.00 -0.00 -12.96 -28.96 18.96 -10.19 7.12 -0.00 -0.00 -0.47 -8.54 -0.40
9.42 17.56 0.41 -4.68 -13.31 0.57 0.00 0.00 0.00 -12.80 -2.42 -19.89 3.95 12.10 36.08 0.55 3.33 -15.64 0.26 -3.29 -9.09 0.00 0.00 0.00 26.48 -15.96 0.29 -0.94 -6.18 17.31 -0.56 -14.97 -26.28 -0.05 1.43 -3.93 -4.53 4.48 7.89 -6.88 5.47 3.37 -5.08 2.72 -0.65 -7.55 -7.39 -15.36 8.41 -8.43 -9.78 3.64 -3.91 0.20 -0.00 0.00 0.00 -82.37 6.88 40.21 129.53 -53.18 -93.45 -0.00 0.00 -21.25 26.11 3.51 1.72 -7.12 0.00 -0.00 -0.42 33.89 0.11 -0.00 0.00 0.00 23.62 55.61 1.40 -81.12 59.70 -52.32 0.00 -0.00 -12.36 -29.10 19.60 -10.58 7.12 -0.00 -0.00 -0.48 -7.80 -0.41
9.47 17.53 0.35 -3.57 -15.39 -0.17 0.00 0.00 0.00 -14.03 -1.84 -19.03 3.86 11.97 35.62 0.58 4.27 -16.53 0.12 -2.21 -6.10 0.00 0.00 0.00 24.87 -15.03 0.15 -1.09 -6.65 18.68 -0.45 -15.02 -25.50 -0.26 3.31 -9.13 -4.78 4.28 7.90 -6.26 5.18 3.32 -4.27 2.57 -0.80 -7.90 -6.32 -14.71 8.46 -6.97 -10.70 3.87 -3.19 -0.32 -0.00 0.00 0.00 -81.82 5.83 41.30 128.94 -53.41 -92.98 -0.00 0.00 -21.20 26.59 3.69 1.84 -7.12 0.00 -0.00 -0.03 34.10 0.01 -0.00 0.00 0.00 33.60 53.05 10.91 -94.60 59.92 -63.98 0.00 -0.00 -11.44 -30.34 20.42 -11.54 7.12 -0.00 -0.00 -1.16 -6.65 -1.02
9.50 17.55 0.28 -3.30 -18.14 -0.71 0.00 0.00 0.00 -14.40 -0.65 -18.34 3.77 11.85 35.19 0.40 6.62 -16.22 0.49 -4.48 -12.44 0.00 0.00 0.00 24.25 -13.07 0.58 -1.21 -6.97 19.62 -0.68 -13.97 -26.19 -0.08 1.85 -5.10 -4.12 4.28 8.04 -5.40 5.22 3.15 -3.75 2.59 -1.07 -7.99 -5.56 -15.38 7.84 -5.94 -10.19 3.71 -2.66 -0.15 0.00 0.00 0.00 -81.13 5.12 42.33 129.07 -53.36 -93.08 -0.00 0.00 -21.79 26.46 3.81 1.89 -7.12 0.00 -0.00 -0.14 34.23 0.04 0.00 0.00 0.00 40.04 47.62 18.45 -108.06 58.73 -75.57 0.00 -0.00 -10.13 -29.98 21.20 -11.78 7.12 -0.00 -0.00 -0.83 -5.86 -0.74
9.54 17.54 0.22 -2.79 -20.97 -1.17 0.00 0.00 0.00 -14.91 0.72 -17.80 3.64 11.66 34.54 0.36 7.92 -16.88 0.37 -3.89 -10.77 0.00 0.00 0.00 23.42 -11.45 0.74 -1.30 -7.21 20.35 -0.71 -13.43 -25.90 -0.14 2.37 -6.53 -3.55 4.06 7.71 -4.59 5.02 3.10 -3.18 2.49 -0.99 -6.95 -4.41 -16.14 5.96 -4.60 -9.76 2.92 -2.04 -0.08 0.00 -0.00 0.00 -80.79 4.16 42.99 128.70 -53.50 -92.79 -0.00 0.00 -21.80 27.31 3.69 1.90 -7.12 0.00 -0.00 0.56 34.13 -0.15 0.00 -0.00 0.00 46.08 42.57 24.70 -117.80 56.87 -83.83 0.00 -0.00 -8.67 -31.13 23.02 -13.29 7.12 -0.00 -0.00 -1.26 -3.59 -1.18
9.58 17.53 0.16 -1.56 -24.01 -2.40 0.00 0.00 0.00 -16.06 2.23 -16.74 3.51 11.48 33.91 0.29 9.43 -17.62 0.29 -3.47 -9.59 0.00 0.00 0.00 21.87 -9.61 1.36 -1.42 -7.55 21.34 -0.77 -12.48 -25.38 -0.13 2.35 -6.48 -3.63 4.01 8.04 -4.08 4.93 3.27 -2.62 2.44 -1.05 -5.86 -3.26 -17.21 4.77 -3.25 -9.27 2.38 -1.41 0.11 0.00 -0.00 0.00 -80.14 2.97 43.50 128.35 -53.64 -92.50 -0.00 0.00 -21.43 28.61 4.00 2.18 -7.12 0.00 -0.00 1.63 34.53 -0.42 0.00 -0.00 0.00 50.52 36.69 29.71 -125.08 54.80 -89.85 0.00 -0.00 -8.79 -30.47 23.44 -13.17 7.12 -0.00 -0.00 -0.79 -3.28 -0.75
9.59 17.53 0.11 -1.19 -26.88 -3.39 0.00 0.00 0.00 -16.16 3.80 -15.73 3.46 11.40 33.65 0.21 10.58 -17.97 0.46 -4.34 -12.04 0.00 0.00 0.00 21.39 -7.75 2.22 -1.51 -7.77 22.01 -0.86 -11.51 -25.22 -0.14 2.45 -6.75 -2.57 3.73 8.30 -3.38 4.65 3.22 -2.48 2.30 -1.23 -5.36 -2.02 -16.70 3.86 -1.77 -8.96 2.07 -0.71 0.03 0.00 -0.00 0.00 -79.75 2.87 43.76 128.39 -53.62 -92.53 -0.00 0.00 -20.93 27.46 3.55 1.84 -7.12 0.00 -0.00 0.69 33.98 -0.19 0.00 -0.00 0.00 55.12 30.18 33.65 -129.75 53.10 -93.63 0.00 -0.00 -8.44 -29.58 25.25 -13.61 7.12 -0.00 -0.00 0.03 -1.51 0.03
9.61 17.51 0.06 0.78 -29.73 -4.68 0.00 0.00 0.00 -17.85 5.40 -15.06 3.28 11.14 32.76 0.17 11.64 -18.78 0.26 -3.29 -9.09 0.00 0.00 0.00 19.48 -5.43 1.99 -1.78 -8.39 23.89 -1.00 -10.44 -25.32 -0.15 2.49 -6.87 -2.93 3.25 8.16 -2.96 3.99 3.17 -1.78 1.97 -1.27 -4.76 -0.49 -16.05 2.51 0.07 -9.30 1.61 0.16 -0.29 -0.00 -0.00 0.00 -79.87 2.91 43.43 128.95 -53.41 -92.98 -0.00 0.00 -21.42 28.37 3.18 1.71 -7.12 0.00 -0.00 1.44 33.59 -0.40 -0.00 -0.00 0.00 58.69 24.05 37.56 -133.15 51.64 -96.32 0.00 -0.00 -8.33 -31.57 25.38 -14.75 7.12 -0.00 -0.00 -1.14 -0.88 -1.12
9.62 17.50 -0.00 2.34 -32.52 -6.14 0.00 0.00 0.00 -18.91 7.32 -14.42 3.17 10.97 32.17 0.12 12.43 -19.19 0.16 -2.55 -7.02 0.00 0.00 0.00 18.12 -3.53 1.87 -2.04 -8.94 25.62 -1.11 -9.46 -25.44 -0.32 3.64 -10.07 -2.72 2.88 8.29 -2.65 3.53 3.41 -1.53 1.74 -1.10 -2.88 0.85 -16.86 0.17 1.49 -8.29 0.61 0.77 0.13 -0.00 -0.00 0.00 -79.51 2.02 43.60 128.82 -53.46 -92.88 -0.00 0.00 -21.36 28.37 3.67 1.98 -7.12 0.00 -0.00 1.43 34.15 -0.38 -0.00 -0.00 0.00 61.93 18.25 39.81 -135.31 50.62 -98.00 0.00 -0.00 -8.37 -31.77 25.69 -15.03 7.12 -0.00 -0.00 -1.20 -0.48 -1.19
